<svg xmlns="http://www.w3.org/2000/svg" xmlns:xlink="http://www.w3.org/1999/xlink" width="500" zoomAndPan="magnify" viewBox="0 0 375 374.999991" height="500" preserveAspectRatio="xMidYMid meet" version="1.0"><defs><clipPath id="d7f44bddb4"><path d="M 149.957031 173 L 262.457031 173 L 262.457031 222.546875 L 149.957031 222.546875 Z M 149.957031 173 " clip-rule="nonzero"/></clipPath><clipPath id="9446030177"><path d="M 176 117.546875 L 236 117.546875 L 236 156 L 176 156 Z M 176 117.546875 " clip-rule="nonzero"/></clipPath></defs><path fill="#ffffff" d="M 197.429688 192.710938 C 196.613281 193.164062 195.882812 193.699219 195.296875 194.40625 C 195.007812 194.761719 194.753906 195.164062 194.570312 195.621094 C 194.386719 196.074219 194.28125 196.582031 194.28125 197.097656 C 194.28125 197.710938 194.433594 198.308594 194.679688 198.824219 C 194.894531 199.273438 195.179688 199.671875 195.496094 200.019531 C 196.058594 200.628906 196.730469 201.105469 197.476562 201.507812 C 198.597656 202.113281 199.90625 202.558594 201.363281 202.867188 C 202.820312 203.175781 204.421875 203.34375 206.113281 203.34375 C 207.582031 203.34375 208.988281 203.214844 210.285156 202.980469 C 211.261719 202.800781 212.175781 202.566406 213.019531 202.265625 C 213.652344 202.042969 214.246094 201.785156 214.792969 201.484375 C 215.609375 201.035156 216.339844 200.5 216.925781 199.789062 C 217.214844 199.433594 217.46875 199.03125 217.652344 198.574219 C 217.835938 198.121094 217.941406 197.613281 217.941406 197.097656 C 217.941406 196.484375 217.789062 195.886719 217.542969 195.375 C 217.328125 194.921875 217.042969 194.523438 216.726562 194.175781 C 216.164062 193.566406 215.492188 193.09375 214.746094 192.6875 C 213.792969 192.175781 212.703125 191.785156 211.507812 191.484375 C 210.339844 192.949219 209.339844 194.171875 208.582031 195.082031 C 208.917969 195.125 209.246094 195.171875 209.558594 195.226562 C 210.339844 195.371094 211.050781 195.558594 211.65625 195.773438 C 212.113281 195.933594 212.511719 196.113281 212.835938 196.289062 C 213.324219 196.554688 213.640625 196.828125 213.773438 196.992188 C 213.808594 197.039062 213.832031 197.074219 213.847656 197.097656 C 213.832031 197.121094 213.8125 197.152344 213.78125 197.191406 C 213.667969 197.339844 213.390625 197.589844 212.957031 197.839844 C 212.308594 198.214844 211.324219 198.589844 210.144531 198.851562 C 208.960938 199.113281 207.582031 199.265625 206.113281 199.265625 C 204.878906 199.265625 203.707031 199.15625 202.664062 198.96875 C 201.882812 198.824219 201.171875 198.636719 200.566406 198.421875 C 200.109375 198.261719 199.710938 198.082031 199.386719 197.90625 C 198.898438 197.640625 198.582031 197.367188 198.453125 197.203125 C 198.414062 197.15625 198.390625 197.125 198.375 197.097656 C 198.390625 197.074219 198.410156 197.046875 198.441406 197.003906 C 198.554688 196.855469 198.832031 196.605469 199.265625 196.359375 C 199.914062 195.980469 200.898438 195.605469 202.078125 195.347656 C 203.003906 195.140625 204.054688 195.003906 205.171875 194.953125 C 204.308594 194.003906 203.171875 192.742188 201.855469 191.230469 C 200.910156 191.40625 200.023438 191.640625 199.203125 191.929688 C 198.570312 192.15625 197.976562 192.414062 197.429688 192.710938 Z M 197.429688 192.710938 " fill-opacity="1" fill-rule="nonzero"/><path fill="#ffffff" d="M 184.785156 184.417969 C 181.003906 185.761719 177.835938 187.453125 175.5 189.53125 C 174.335938 190.570312 173.375 191.714844 172.695312 192.984375 C 172.011719 194.25 171.617188 195.652344 171.621094 197.097656 C 171.617188 198.382812 171.929688 199.636719 172.476562 200.785156 C 172.957031 201.792969 173.613281 202.726562 174.40625 203.589844 C 175.796875 205.101562 177.601562 206.414062 179.730469 207.566406 C 182.929688 209.292969 186.878906 210.65625 191.355469 211.605469 C 195.828125 212.554688 200.828125 213.082031 206.113281 213.082031 C 210.710938 213.082031 215.097656 212.679688 219.109375 211.953125 C 222.117188 211.40625 224.914062 210.671875 227.433594 209.78125 C 231.21875 208.433594 234.386719 206.742188 236.71875 204.664062 C 237.886719 203.625 238.847656 202.480469 239.527344 201.210938 C 240.210938 199.945312 240.605469 198.542969 240.601562 197.097656 C 240.605469 195.8125 240.292969 194.558594 239.746094 193.410156 C 239.265625 192.402344 238.609375 191.46875 237.816406 190.605469 C 236.425781 189.09375 234.621094 187.78125 232.488281 186.628906 C 229.292969 184.90625 225.34375 183.539062 220.867188 182.589844 C 220.128906 182.433594 219.367188 182.292969 218.597656 182.160156 C 217.667969 183.445312 216.75 184.683594 215.867188 185.855469 C 216.722656 185.976562 217.5625 186.105469 218.378906 186.257812 C 221.195312 186.765625 223.785156 187.449219 226.074219 188.261719 C 229.503906 189.472656 232.242188 190.992188 234.007812 192.574219 C 234.890625 193.363281 235.53125 194.160156 235.9375 194.914062 C 236.34375 195.671875 236.523438 196.378906 236.527344 197.097656 C 236.523438 197.738281 236.378906 198.363281 236.0625 199.03125 C 235.789062 199.613281 235.375 200.21875 234.8125 200.832031 C 233.828125 201.90625 232.386719 202.992188 230.554688 203.976562 C 227.804688 205.464844 224.195312 206.734375 220.023438 207.617188 C 215.851562 208.5 211.121094 209.003906 206.113281 209.003906 C 201.75 209.003906 197.597656 208.621094 193.84375 207.9375 C 191.027344 207.429688 188.4375 206.746094 186.148438 205.933594 C 182.71875 204.722656 179.980469 203.203125 178.214844 201.621094 C 177.332031 200.832031 176.691406 200.035156 176.285156 199.28125 C 175.882812 198.523438 175.699219 197.816406 175.699219 197.097656 C 175.699219 196.457031 175.84375 195.832031 176.160156 195.164062 C 176.4375 194.582031 176.847656 193.976562 177.414062 193.363281 C 178.394531 192.289062 179.839844 191.203125 181.671875 190.21875 C 184.417969 188.730469 188.027344 187.460938 192.199219 186.578125 C 193.789062 186.242188 195.457031 185.960938 197.191406 185.742188 C 196.226562 184.574219 195.226562 183.339844 194.210938 182.058594 C 193.84375 182.117188 193.476562 182.175781 193.113281 182.242188 C 190.105469 182.789062 187.308594 183.523438 184.785156 184.417969 Z M 184.785156 184.417969 " fill-opacity="1" fill-rule="nonzero"/><g clip-path="url(#d7f44bddb4)"><path fill="#ffffff" d="M 260.960938 191.535156 C 260.230469 190 259.214844 188.550781 257.96875 187.195312 C 255.789062 184.820312 252.902344 182.707031 249.449219 180.839844 C 244.265625 178.042969 237.796875 175.800781 230.433594 174.238281 C 228.589844 173.847656 226.683594 173.5 224.730469 173.199219 C 223.914062 174.472656 223.082031 175.726562 222.246094 176.960938 C 223.800781 177.171875 225.324219 177.410156 226.808594 177.683594 C 231.566406 178.546875 235.957031 179.699219 239.847656 181.078125 C 245.683594 183.144531 250.394531 185.738281 253.527344 188.539062 C 255.097656 189.9375 256.273438 191.382812 257.039062 192.8125 C 257.808594 194.246094 258.179688 195.65625 258.183594 197.097656 C 258.179688 198.378906 257.886719 199.632812 257.28125 200.90625 C 256.75 202.019531 255.980469 203.136719 254.964844 204.242188 C 253.191406 206.179688 250.664062 208.066406 247.507812 209.765625 C 242.777344 212.324219 236.644531 214.472656 229.589844 215.96875 C 222.535156 217.460938 214.554688 218.308594 206.113281 218.308594 C 198.757812 218.308594 191.757812 217.667969 185.414062 216.511719 C 180.65625 215.648438 176.265625 214.496094 172.375 213.117188 C 166.535156 211.050781 161.828125 208.457031 158.695312 205.65625 C 157.125 204.257812 155.949219 202.8125 155.183594 201.382812 C 154.414062 199.949219 154.042969 198.539062 154.039062 197.097656 C 154.042969 195.816406 154.335938 194.5625 154.941406 193.289062 C 155.46875 192.175781 156.242188 191.058594 157.257812 189.953125 C 159.03125 188.015625 161.558594 186.128906 164.710938 184.429688 C 169.445312 181.871094 175.578125 179.722656 182.632812 178.226562 C 185.070312 177.710938 187.625 177.273438 190.265625 176.921875 C 189.355469 175.699219 188.457031 174.449219 187.574219 173.1875 C 186.597656 173.339844 185.632812 173.496094 184.683594 173.667969 C 179.734375 174.570312 175.136719 175.773438 171.011719 177.234375 C 164.820312 179.433594 159.683594 182.199219 155.980469 185.496094 C 154.128906 187.144531 152.636719 188.9375 151.589844 190.882812 C 150.546875 192.824219 149.960938 194.929688 149.960938 197.097656 C 149.960938 199.023438 150.421875 200.90625 151.261719 202.660156 C 151.992188 204.195312 153.007812 205.644531 154.253906 207 C 156.433594 209.375 159.320312 211.488281 162.773438 213.355469 C 167.957031 216.152344 174.425781 218.394531 181.789062 219.957031 C 189.148438 221.515625 197.394531 222.386719 206.113281 222.386719 C 213.703125 222.386719 220.9375 221.726562 227.539062 220.527344 C 232.488281 219.625 237.085938 218.421875 241.210938 216.960938 C 247.398438 214.761719 252.539062 211.996094 256.242188 208.699219 C 258.09375 207.046875 259.585938 205.257812 260.632812 203.3125 C 261.675781 201.371094 262.261719 199.265625 262.261719 197.097656 C 262.261719 195.171875 261.800781 193.289062 260.960938 191.535156 Z M 260.960938 191.535156 " fill-opacity="1" fill-rule="nonzero"/></g><path fill="#e93119" d="M 194.210938 182.058594 C 195.226562 183.339844 196.226562 184.574219 197.191406 185.742188 C 198.882812 187.792969 200.472656 189.648438 201.855469 191.230469 C 203.171875 192.742188 204.308594 194.003906 205.171875 194.953125 C 206.332031 196.226562 207.015625 196.945312 207.015625 196.945312 C 207.015625 196.945312 207.59375 196.277344 208.582031 195.082031 C 209.339844 194.167969 210.339844 192.949219 211.507812 191.484375 C 212.789062 189.875 214.277344 187.96875 215.867188 185.855469 C 216.75 184.683594 217.667969 183.445312 218.597656 182.160156 C 219.800781 180.5 221.027344 178.757812 222.246094 176.960938 C 223.082031 175.726562 223.914062 174.472656 224.730469 173.199219 C 229.945312 165.074219 234.511719 156.351562 235.425781 149.636719 L 225.277344 149.371094 C 224.40625 149.351562 223.648438 148.777344 223.386719 147.949219 L 220.074219 137.5 L 215.570312 147.582031 C 215.222656 148.359375 214.4375 148.835938 213.589844 148.785156 L 208.289062 148.472656 L 205.273438 163.296875 C 205.089844 164.195312 204.324219 164.863281 203.410156 164.921875 C 202.496094 164.984375 201.648438 164.421875 201.347656 163.554688 L 192.707031 138.640625 L 189.296875 148.941406 C 189.035156 149.730469 188.320312 150.285156 187.492188 150.335938 L 176.390625 151.046875 C 177.582031 157.464844 182.238281 165.574219 187.574219 173.191406 C 188.457031 174.449219 189.355469 175.699219 190.265625 176.921875 C 191.582031 178.695312 192.910156 180.414062 194.210938 182.058594 Z M 194.210938 182.058594 " fill-opacity="1" fill-rule="nonzero"/><g clip-path="url(#9446030177)"><path fill="#e93119" d="M 190.726562 131.648438 C 191 130.820312 191.773438 130.257812 192.648438 130.25 C 193.523438 130.246094 194.300781 130.796875 194.589844 131.621094 L 202.761719 155.1875 L 204.644531 145.925781 C 204.847656 144.929688 205.75 144.238281 206.765625 144.296875 L 212.421875 144.632812 L 218.535156 130.941406 C 218.878906 130.171875 219.667969 129.691406 220.511719 129.738281 C 221.355469 129.785156 222.085938 130.355469 222.339844 131.160156 L 226.832031 145.332031 L 235.527344 145.558594 C 234.40625 129.808594 221.089844 117.558594 205.140625 117.9375 C 189.183594 118.316406 176.460938 131.191406 176.097656 146.980469 L 185.855469 146.355469 Z M 190.726562 131.648438 " fill-opacity="1" fill-rule="nonzero"/></g><path fill="#ffffff" d="M 189.296875 148.941406 L 192.707031 138.640625 L 201.347656 163.554688 C 201.648438 164.421875 202.496094 164.984375 203.410156 164.921875 C 204.324219 164.863281 205.089844 164.195312 205.273438 163.292969 L 208.289062 148.472656 L 213.589844 148.785156 C 214.4375 148.835938 215.222656 148.359375 215.570312 147.582031 L 220.074219 137.5 L 223.386719 147.949219 C 223.648438 148.777344 224.40625 149.347656 225.277344 149.371094 L 235.425781 149.636719 L 239.75 149.746094 C 240.875 149.777344 241.8125 148.886719 241.839844 147.761719 C 241.871094 146.636719 240.980469 145.699219 239.855469 145.671875 L 235.527344 145.558594 L 226.832031 145.332031 L 222.339844 131.160156 C 222.085938 130.355469 221.355469 129.785156 220.511719 129.738281 C 219.667969 129.691406 218.878906 130.171875 218.535156 130.945312 L 212.421875 144.632812 L 206.765625 144.296875 C 205.75 144.238281 204.847656 144.929688 204.644531 145.925781 L 202.761719 155.1875 L 194.589844 131.621094 C 194.300781 130.796875 193.523438 130.246094 192.648438 130.25 C 191.773438 130.257812 191 130.820312 190.726562 131.648438 L 185.855469 146.355469 L 176.097656 146.980469 L 171.921875 147.25 C 170.796875 147.320312 169.945312 148.289062 170.015625 149.414062 C 170.089844 150.539062 171.058594 151.390625 172.183594 151.316406 L 176.390625 151.046875 L 187.488281 150.335938 C 188.320312 150.285156 189.035156 149.730469 189.296875 148.941406 Z M 189.296875 148.941406 " fill-opacity="1" fill-rule="nonzero"/></svg>